<svg width="15" height="16" viewBox="0 0 15 16" fill="none" xmlns="http://www.w3.org/2000/svg">
    <path d="M0 12.3754V15.5H3.12458L12.34 6.28458L9.21542 3.16001L0 12.3754ZM14.7563 3.86825C14.8336 3.79116 14.8949 3.6996 14.9367 3.5988C14.9785 3.49801 15 3.38995 15 3.28083C15 3.1717 14.9785 3.06365 14.9367 2.96285C14.8949 2.86205 14.8336 2.77049 14.7563 2.69341L12.8066 0.74367C12.7295 0.666428 12.6379 0.605146 12.5372 0.563334C12.4364 0.521522 12.3283 0.5 12.2192 0.5C12.1101 0.5 12.002 0.521522 11.9012 0.563334C11.8004 0.605146 11.7088 0.666428 11.6318 0.74367L10.107 2.26846L13.2315 5.39304L14.7563 3.86825Z" fill="#FDD700"/>
</svg>
