<svg width="15" height="10" viewBox="0 0 15 10" fill="none" xmlns="http://www.w3.org/2000/svg">
    <path fill-rule="evenodd" clip-rule="evenodd" d="M14.5005 5.00055L14.9475 4.77295V4.77076L14.9442 4.76748L14.9378 4.75435L14.9151 4.71058L14.829 4.55302C14.7238 4.36875 14.6121 4.18845 14.494 4.01247C14.0999 3.42483 13.6469 2.88028 13.1423 2.38757C11.9295 1.20582 10.0629 0 7.49946 0C4.93817 0 3.07051 1.20473 1.85772 2.38757C1.35307 2.88028 0.900068 3.42483 0.505988 4.01247C0.346083 4.25216 0.197982 4.49975 0.0622317 4.75435L0.0557692 4.76748L0.0536151 4.77076V4.77186C0.0536151 4.77186 0.0525381 4.77295 0.499526 5.00055L0.0525379 4.77186C0.0179792 4.84279 0 4.92086 0 5C0 5.07914 0.0179792 5.15722 0.0525379 5.22814L0.0514609 5.23033L0.0546922 5.23361L0.0611546 5.24675C0.0947399 5.31511 0.130664 5.38226 0.168863 5.44808C0.632651 6.24402 1.2 6.97277 1.85557 7.61462C3.06944 8.79637 4.93601 10 7.49946 10C10.0618 10 11.9295 8.79637 13.1434 7.61352C13.6471 7.12023 14.0997 6.57574 14.494 5.98862C14.645 5.76272 14.7856 5.52976 14.9151 5.29051L14.9378 5.24675L14.9442 5.23361L14.9464 5.23033V5.22924C14.9464 5.22924 14.9475 5.22814 14.5005 5.00055ZM14.5005 5.00055L14.9475 5.22924C14.982 5.15831 15 5.08024 15 5.00109C15 4.92195 14.982 4.84388 14.9475 4.77295L14.5005 5.00055ZM7.43484 3.31984C6.99606 3.31984 6.57526 3.49691 6.265 3.81211C5.95475 4.1273 5.78044 4.5548 5.78044 5.00055C5.78044 5.4463 5.95475 5.87379 6.265 6.18899C6.57526 6.50418 6.99606 6.68126 7.43484 6.68126C7.87361 6.68126 8.29441 6.50418 8.60467 6.18899C8.91493 5.87379 9.08923 5.4463 9.08923 5.00055C9.08923 4.5548 8.91493 4.1273 8.60467 3.81211C8.29441 3.49691 7.87361 3.31984 7.43484 3.31984ZM4.78307 5.00055C4.78307 4.28549 5.06268 3.59971 5.56038 3.09409C6.05809 2.58847 6.73313 2.30441 7.43699 2.30441C8.14085 2.30441 8.81589 2.58847 9.3136 3.09409C9.81131 3.59971 10.0909 4.28549 10.0909 5.00055C10.0909 5.71561 9.81131 6.40138 9.3136 6.907C8.81589 7.41263 8.14085 7.69668 7.43699 7.69668C6.73313 7.69668 6.05809 7.41263 5.56038 6.907C5.06268 6.40138 4.78307 5.71561 4.78307 5.00055Z" fill="#5DA38E"/>
</svg>
